<svg xmlns="http://www.w3.org/2000/svg" xmlns:xlink="http://www.w3.org/1999/xlink" version="1.1" x="0px" y="0px" viewBox="0 0 100 125" style="enable-background:new 0 0 100 100;" xml:space="preserve"><path d="M64.8,28.6c-5.4,0-10.7,1.8-14.9,5.1c-6.9-5-16.4-5.2-23.6-0.1l0,0c-5.2-4-11.8-5.8-18.4-4.9L5,29.1v42.3h30.2  c5.4,0,10.6-1.8,14.9-5.1c6.9,5,16.4,5.2,23.6,0.2l0,0c5.2,4,11.8,5.8,18.4,4.9l2.9-0.4V28.6H64.8z M44.8,38.5l-6.7,6.7l-6.8-6.8  C35.6,35.9,40.8,36.1,44.8,38.5z M26.4,42.9l6.8,6.8c-2.9,2-6.4,3.1-9.9,3.2C23.3,49.3,24.4,45.9,26.4,42.9z M35.2,64.6H11.7V35.2  c3.5,0.1,6.9,1.2,9.7,3.2c-3.9,5.2-5.6,11.7-4.7,18.2l0.4,2.5l2.5,0.4c6.6,0.9,13.2-0.9,18.4-4.9l0,0l7.1,7.1  C42.2,63.6,38.7,64.6,35.2,64.6z M50.1,57.1L50.1,57.1l-7.2-7.1l7-7l7.2,7.2L50.1,57.1z M55.2,61.5l6.7-6.7l6.8,6.8  C64.4,64.1,59.2,63.9,55.2,61.5z M73.5,57l-6.8-6.8c2.9-2,6.4-3.1,9.9-3.2C76.7,50.7,75.6,54.1,73.5,57z M88.2,64.8  c-3.5-0.1-6.9-1.2-9.7-3.2c3.9-5.2,5.6-11.7,4.7-18.2L82.9,41l-2.5-0.4c-6.6-0.9-13.2,0.8-18.4,4.9l-7.1-7.1c2.9-2,6.4-3,9.9-3h23.4  V64.8z"/><text x="0" y="115" fill="#000000" font-size="5px" font-weight="bold" font-family="'Helvetica Neue', Helvetica, Arial-Unicode, Arial, Sans-serif">Created by Federico Panzano</text><text x="0" y="120" fill="#000000" font-size="5px" font-weight="bold" font-family="'Helvetica Neue', Helvetica, Arial-Unicode, Arial, Sans-serif">from the Noun Project</text></svg>